<?xml version="1.0" encoding="UTF-8" standalone="yes"?>
<svg xmlns="http://www.w3.org/2000/svg" xmlns:xlink="http://www.w3.org/1999/xlink" width="650.404pt" height="436.532pt" version="1.1" viewBox="567.969 -502.814 650.404 436.532">
  <!--
	Exported with Concepts: Smarter Sketching
	Version: 2023.01.9 on Android 13
	https://concepts.app/
	-->
  <title>Senza titolo 2</title>
  <desc>Drawing exported from Concepts: Smarter Sketching</desc>
  <defs></defs>
  <g id="Penna" opacity="1.000">
    <path id="STROKE_8cf14569-10b2-4457-87ef-a4bd2ea1d99f" opacity="1.000" fill="none" stroke="#f9f9f1" stroke-width="2.473" stroke-opacity="1.000" stroke-linecap="round" stroke-linejoin="round" d="M 696.461 -299.863 Q 696.085 -298.709 695.218 -296.477 Q 694.351 -294.244 693.441 -291.683 Q 693.430 -289.650 701.220 -298.519 Q 709.010 -307.389 716.196 -317.070 Q 723.383 -326.751 729.322 -335.534 Q 735.261 -344.316 763.222 -400.885 Q 762.379 -399.314 761.160 -372.709 Q 759.941 -346.104 759.455 -331.987 Q 758.970 -317.870 758.810 -311.638 Q 758.651 -305.406 759.385 -300.116 Q 760.120 -294.826 761.185 -290.793 Q 762.250 -286.760 766.475 -284.140 Q 769.332 -286.696 766.534 -292.413 Q 763.735 -298.129 756.088 -304.425 Q 748.441 -310.720 742.454 -314.349 Q 736.468 -317.978 730.620 -320.216 Q 724.771 -322.453 720.190 -325.253 L 720.238 -325.759 Q 719.895 -326.142 736.147 -327.055 Q 752.398 -327.967 763.316 -328.943 Q 774.233 -329.919 783.727 -331.566 "></path>
    <path id="STROKE_63ac3607-3184-4d98-a9bd-db26f1c8e21d" opacity="1.000" fill="none" stroke="#f9f9f1" stroke-width="2.473" stroke-opacity="1.000" stroke-linecap="round" stroke-linejoin="round" d="M 815.905 -396.548 Q 816.215 -396.629 817.026 -396.544 Q 818.631 -394.664 815.206 -382.796 Q 811.781 -370.928 809.523 -364.337 Q 807.264 -357.747 805.712 -353.946 Q 804.159 -350.145 802.505 -346.094 Q 800.850 -342.043 796.344 -331.321 Q 791.838 -320.599 788.362 -304.096 Q 788.578 -303.629 791.340 -312.042 Q 794.103 -320.454 795.382 -332.729 Q 796.661 -345.004 798.078 -354.151 Q 799.495 -363.297 802.271 -370.811 Q 805.046 -378.325 807.548 -382.547 Q 810.051 -386.769 812.273 -390.069 Q 814.495 -393.368 818.701 -396.029 Q 822.907 -398.690 825.700 -399.906 Q 828.494 -401.123 832.367 -401.457 Q 836.239 -401.792 839.225 -400.750 Q 842.210 -399.709 844.618 -397.539 Q 847.025 -395.369 847.912 -390.962 Q 848.799 -386.555 846.412 -380.689 Q 844.024 -374.822 840.723 -370.569 Q 837.421 -366.316 833.415 -362.334 Q 829.408 -358.352 822.545 -355.431 Q 815.682 -352.510 807.953 -352.524 L 807.943 -352.422 Q 807.934 -352.388 815.173 -351.824 Q 822.413 -351.260 827.357 -350.123 Q 832.300 -348.986 835.299 -347.670 Q 838.299 -346.354 841.900 -343.103 Q 845.500 -339.852 847.138 -336.244 Q 848.775 -332.637 849.030 -327.411 Q 849.285 -322.186 847.381 -317.402 Q 845.477 -312.617 841.683 -307.203 Q 837.890 -301.789 832.200 -297.248 Q 826.510 -292.706 817.173 -289.369 Q 807.836 -286.031 801.973 -284.382 Q 796.111 -282.733 782.580 -283.479 Q 782.244 -286.010 792.132 -287.927 "></path>
    <path id="STROKE_ad53723d-ebf8-4e65-97e2-12e0a68d36ce" opacity="1.000" fill="none" stroke="#f9f9f1" stroke-width="2.473" stroke-opacity="1.000" stroke-linecap="round" stroke-linejoin="round" d="M 878.196 -327.395 Q 878.632 -328.253 875.622 -324.007 Q 872.612 -319.762 871.074 -315.001 Q 869.536 -310.240 868.997 -306.574 Q 868.459 -302.908 869.159 -300.836 Q 869.860 -298.763 872.390 -297.763 Q 874.919 -296.764 877.901 -297.123 Q 880.882 -297.483 886.091 -299.952 Q 891.301 -302.421 898.297 -308.547 Q 905.293 -314.673 909.923 -320.653 Q 914.552 -326.632 918.019 -331.660 Q 921.485 -336.688 923.798 -341.660 Q 926.111 -346.632 927.122 -351.323 Q 928.133 -356.014 927.897 -361.178 Q 927.661 -366.342 926.070 -370.261 Q 924.479 -374.180 922.750 -377.049 Q 921.021 -379.918 918.710 -381.443 Q 916.399 -382.969 914.160 -383.305 Q 911.922 -383.641 909.806 -383.869 Q 907.690 -384.096 902.790 -381.394 Q 897.891 -378.692 895.229 -376.466 Q 892.568 -374.240 891.023 -372.582 Q 889.479 -370.923 888.037 -369.573 Q 886.595 -368.223 881.964 -361.887 Q 877.334 -355.552 873.564 -347.862 Q 869.794 -340.172 867.731 -332.270 Q 865.669 -324.368 864.651 -318.335 Q 863.633 -312.302 869.560 -298.736 "></path>
    <path id="STROKE_a54da8b0-17f1-4a61-a546-7ba051aad189" opacity="1.000" fill="none" stroke="#f9f9f1" stroke-width="2.473" stroke-opacity="1.000" stroke-linecap="round" stroke-linejoin="round" d="M 970.826 -381.234 Q 969.196 -382.200 963.266 -370.630 Q 957.336 -359.059 954.301 -352.502 Q 951.266 -345.946 947.538 -337.758 Q 943.810 -329.571 941.686 -322.389 Q 939.561 -315.208 939.039 -310.419 Q 938.517 -305.630 939.619 -301.724 Q 940.722 -297.818 942.212 -295.914 Q 943.702 -294.010 948.164 -293.001 Q 952.626 -291.993 959.340 -295.035 Q 966.053 -298.077 971.434 -302.119 Q 976.814 -306.160 982.797 -312.587 Q 988.781 -319.013 992.895 -327.760 Q 997.009 -336.506 998.871 -345.709 Q 1000.734 -354.912 1001.530 -359.944 Q 1002.326 -364.976 1002.149 -370.224 Q 1001.971 -375.471 999.473 -381.065 Q 998.368 -380.349 1001.644 -369.537 "></path>
    <path id="STROKE_37607aa2-40d6-440d-b8e8-ed41f745c12e" opacity="1.000" fill="none" stroke="#f9f9f1" stroke-width="2.473" stroke-opacity="1.000" stroke-linecap="round" stroke-linejoin="round" d="M 723.826 -458.840 Q 723.532 -458.600 713.566 -453.777 Q 703.599 -448.954 694.338 -443.589 Q 685.077 -438.223 673.688 -429.570 Q 662.300 -420.918 655.796 -415.108 Q 649.292 -409.299 645.901 -406.105 Q 642.509 -402.911 636.305 -396.191 Q 630.100 -389.470 624.662 -382.271 Q 619.224 -375.071 616.423 -371.172 Q 613.622 -367.272 608.588 -359.739 Q 603.554 -352.206 598.148 -341.654 Q 592.742 -331.102 590.331 -325.191 Q 587.919 -319.280 585.756 -313.416 Q 583.592 -307.552 581.142 -298.499 Q 578.691 -289.447 577.454 -280.651 Q 576.217 -271.856 576.024 -264.142 Q 575.830 -256.428 576.206 -248.828 Q 576.581 -241.228 578.308 -232.989 Q 580.034 -224.750 581.805 -219.673 Q 583.576 -214.596 584.993 -210.316 Q 586.411 -206.037 590.904 -198.443 Q 595.397 -190.849 598.137 -186.697 Q 600.877 -182.544 605.604 -176.701 Q 610.330 -170.859 616.256 -164.444 Q 622.181 -158.029 631.440 -150.469 Q 640.699 -142.909 646.963 -138.599 Q 653.228 -134.288 659.630 -130.501 Q 666.033 -126.715 670.388 -124.139 Q 674.744 -121.564 687.152 -115.486 Q 699.560 -109.408 706.033 -106.598 Q 712.506 -103.787 722.452 -100.087 Q 732.397 -96.386 739.535 -94.187 Q 746.673 -91.987 754.363 -89.683 Q 762.052 -87.379 776.319 -84.283 Q 790.586 -81.187 802.202 -79.349 Q 813.818 -77.510 826.308 -76.380 Q 838.798 -75.250 848.217 -74.606 Q 857.635 -73.962 872.893 -74.555 Q 888.150 -75.147 896.210 -75.618 Q 904.271 -76.088 917.430 -77.677 Q 930.590 -79.267 940.896 -81.085 Q 951.202 -82.902 959.297 -84.618 Q 967.392 -86.334 975.487 -88.541 Q 983.581 -90.747 990.084 -92.734 Q 996.587 -94.720 1007.520 -98.714 Q 1018.453 -102.708 1031.056 -108.444 Q 1043.659 -114.179 1055.901 -121.164 Q 1068.143 -128.149 1074.900 -132.587 Q 1081.657 -137.025 1085.663 -139.851 Q 1089.669 -142.677 1093.251 -145.300 Q 1096.833 -147.923 1101.040 -151.147 Q 1105.247 -154.371 1110.053 -158.325 Q 1114.859 -162.278 1122.406 -169.027 Q 1129.952 -175.776 1138.582 -184.446 Q 1147.212 -193.116 1153.491 -200.192 Q 1159.771 -207.268 1163.977 -212.613 Q 1168.183 -217.959 1171.698 -222.761 Q 1175.213 -227.562 1179.534 -234.012 Q 1183.855 -240.462 1188.258 -248.241 Q 1192.662 -256.020 1196.483 -264.818 Q 1200.304 -273.615 1202.711 -281.130 Q 1205.118 -288.645 1206.399 -294.448 Q 1207.680 -300.251 1208.679 -305.769 Q 1209.678 -311.286 1210.160 -320.452 Q 1210.642 -329.617 1210.089 -337.292 Q 1209.536 -344.968 1208.043 -353.102 Q 1206.550 -361.236 1203.374 -369.154 Q 1200.197 -377.072 1197.313 -382.902 Q 1194.430 -388.732 1189.095 -396.607 Q 1183.760 -404.483 1177.704 -411.088 Q 1171.649 -417.693 1168.155 -421.001 Q 1164.661 -424.309 1160.505 -427.985 Q 1156.349 -431.662 1150.874 -435.889 Q 1145.399 -440.116 1137.863 -445.196 Q 1130.328 -450.276 1118.895 -456.897 Q 1107.461 -463.518 1094.810 -469.397 Q 1082.158 -475.276 1075.667 -477.925 Q 1069.177 -480.575 1066.032 -481.900 Q 1062.888 -483.226 1052.385 -486.666 Q 1041.881 -490.107 1022.643 -494.874 "></path>
    <path id="STROKE_62a2f994-fa5b-4e45-9dd5-5dd43d667dd3" opacity="1.000" fill="none" stroke="#f9f9f1" stroke-width="2.473" stroke-opacity="1.000" stroke-linecap="round" stroke-linejoin="round" d="M 1020.921 -375.863 Q 1020.998 -375.546 1020.968 -377.064 Q 1020.938 -378.581 1021.461 -379.008 Q 1021.984 -379.434 1024.260 -379.846 Q 1026.536 -380.259 1033.688 -380.649 Q 1040.841 -381.039 1045.427 -381.354 Q 1050.014 -381.670 1054.799 -381.724 Q 1059.584 -381.779 1063.763 -381.782 Q 1067.942 -381.785 1070.676 -381.695 Q 1073.410 -381.605 1075.645 -381.313 "></path>
    <path id="STROKE_34fc9c63-9ce8-4ba1-9523-b301d56d1df3" opacity="1.000" fill="none" stroke="#f9f9f1" stroke-width="2.473" stroke-opacity="1.000" stroke-linecap="round" stroke-linejoin="round" d="M 1045.057 -383.426 Q 1045.628 -382.604 1043.494 -364.656 Q 1041.360 -346.707 1039.311 -334.504 Q 1037.263 -322.301 1036.058 -315.065 Q 1034.854 -307.829 1034.046 -296.616 "></path>
    <path id="STROKE_41f1a8c1-ff65-4f7b-a772-a026d80f004e" opacity="1.000" fill="none" stroke="#f9f9f1" stroke-width="2.473" stroke-opacity="1.000" stroke-linecap="round" stroke-linejoin="round" d="M 835.505 -267.809 Q 835.447 -268.357 836.095 -263.543 Q 836.743 -258.728 836.420 -247.679 Q 836.097 -236.630 835.732 -230.861 Q 835.367 -225.092 834.930 -221.555 Q 834.494 -218.018 834.285 -216.014 Q 834.076 -214.011 833.011 -205.569 Q 831.946 -197.127 831.724 -184.892 Q 831.724 -184.960 831.724 -185.503 "></path>
    <path id="STROKE_f3f0a020-44ea-404c-8077-8770d609f3f9" opacity="1.000" fill="none" stroke="#f9f9f1" stroke-width="2.473" stroke-opacity="1.000" stroke-linecap="round" stroke-linejoin="round" d="M 835.672 -265.251 Q 835.825 -265.704 835.373 -264.419 Q 834.921 -263.135 835.196 -260.592 Q 835.471 -258.049 836.884 -254.819 Q 838.298 -251.590 839.972 -249.084 Q 841.646 -246.578 843.568 -245.002 Q 845.491 -243.427 847.649 -242.848 Q 849.807 -242.269 852.184 -242.860 Q 854.562 -243.450 856.968 -245.407 Q 859.374 -247.363 861.787 -250.669 Q 864.201 -253.976 865.290 -257.162 Q 866.379 -260.348 866.724 -262.030 Q 867.068 -263.711 867.137 -264.979 Q 867.207 -266.246 867.010 -268.838 L 866.844 -268.866 Q 866.023 -266.594 866.054 -266.696 Q 866.084 -266.799 865.641 -260.569 Q 865.198 -254.339 865.351 -242.646 Q 865.504 -230.954 865.387 -225.102 Q 865.270 -219.250 865.886 -213.561 Q 866.503 -207.873 867.198 -204.761 Q 867.894 -201.649 868.395 -199.997 Q 868.897 -198.346 870.097 -197.794 Q 870.060 -197.937 870.153 -198.628 "></path>
    <path id="STROKE_5c9a3197-051a-4228-be33-a554ee59c511" opacity="1.000" fill="none" stroke="#f9f9f1" stroke-width="2.473" stroke-opacity="1.000" stroke-linecap="round" stroke-linejoin="round" d="M 887.782 -258.855 Q 888.366 -259.395 888.338 -259.328 L 888.533 -259.356 Q 889.018 -258.197 888.995 -258.109 Q 888.973 -258.021 889.039 -257.556 Q 889.105 -257.092 889.107 -256.826 Q 889.110 -256.560 889.252 -253.747 Q 889.394 -250.934 888.555 -242.491 Q 887.715 -234.048 886.872 -228.564 Q 886.029 -223.079 885.573 -216.885 Q 885.116 -210.691 885.054 -206.939 Q 884.992 -203.186 885.691 -200.280 Q 886.391 -197.373 887.475 -195.592 Q 888.559 -193.811 890.272 -192.246 Q 891.984 -190.681 896.985 -190.639 Q 901.987 -190.598 906.931 -191.409 Q 911.875 -192.221 914.394 -192.618 Q 916.913 -193.015 918.341 -193.790 Q 919.769 -194.566 921.039 -195.736 "></path>
    <path id="STROKE_fb579ac2-c905-471f-922c-4e6bd982661d" opacity="1.000" fill="none" stroke="#f9f9f1" stroke-width="2.473" stroke-opacity="1.000" stroke-linecap="round" stroke-linejoin="round" d="M 885.558 -232.718 Q 885.558 -231.885 885.558 -231.939 Q 886.338 -231.408 892.297 -232.350 Q 898.256 -233.292 902.108 -234.087 Q 905.961 -234.881 909.193 -235.220 "></path>
    <path id="STROKE_510bc4c5-c07c-4890-b292-a0123f3c6a4e" opacity="1.000" fill="none" stroke="#f9f9f1" stroke-width="2.473" stroke-opacity="1.000" stroke-linecap="round" stroke-linejoin="round" d="M 885.446 -261.302 Q 885.707 -262.898 896.242 -263.604 Q 906.777 -264.310 913.519 -264.575 Q 920.262 -264.840 925.933 -264.027 "></path>
  </g>
</svg>