<?xml version="1.0" encoding="UTF-8" standalone="yes"?>
<svg xmlns="http://www.w3.org/2000/svg" xmlns:xlink="http://www.w3.org/1999/xlink" width="1399.555pt" height="609.583pt" version="1.1" viewBox="-1216.996 -146.265 1399.555 609.583">

  <title>Firma</title>
  <desc>Drawing exported from Concepts: Smarter Sketching</desc>
  <defs></defs>
  <g id="Penna" opacity="1.000">
    <path id="emma" opacity="1.000" fill="none" stroke="#ffffff" stroke-width="10.782" stroke-opacity="1.000" stroke-linecap="round" stroke-linejoin="round" d="M -1002.640 -17.594 Q -1001.333 -14.479 -966.486 -13.881 Q -931.640 -13.284 -912.131 -15.011 Q -892.622 -16.738 -883.894 -17.767 Q -875.166 -18.797 -864.130 -19.686 Q -853.094 -20.575 -824.933 -24.047 Q -796.773 -27.519 -779.322 -30.987 Q -761.871 -34.454 -748.511 -39.158 Q -735.151 -43.863 -728.068 -47.697 Q -720.986 -51.531 -717.861 -54.959 Q -714.736 -58.387 -714.144 -63.182 Q -713.553 -67.977 -723.659 -75.632 Q -733.765 -83.288 -754.760 -87.603 Q -775.754 -91.919 -793.170 -92.552 Q -810.586 -93.186 -831.864 -92.205 Q -853.142 -91.224 -881.790 -83.142 Q -910.438 -75.059 -926.594 -69.065 Q -942.750 -63.071 -956.880 -56.584 Q -971.011 -50.098 -983.240 -41.879 Q -995.470 -33.661 -1002.884 -26.836 Q -1010.297 -20.012 -1016.768 -10.703 Q -1023.239 -1.393 -1025.972 7.727 Q -1028.704 16.848 -1027.932 24.052 Q -1027.160 31.257 -1024.465 36.125 Q -1021.770 40.994 -1014.051 48.098 Q -1006.333 55.201 -983.569 62.588 Q -960.805 69.975 -911.014 72.467 Q -861.222 74.959 -829.688 74.946 Q -798.154 74.934 -732.960 79.947 Q -734.148 80.092 -766.439 81.437 Q -798.730 82.781 -820.647 85.614 Q -842.563 88.446 -863.927 92.742 Q -885.292 97.037 -915.597 105.651 Q -945.903 114.266 -981.589 128.966 Q -1017.275 143.667 -1041.138 156.160 Q -1065.002 168.654 -1080.425 176.487 Q -1095.848 184.320 -1115.627 199.790 Q -1135.407 215.259 -1145.691 224.262 Q -1155.975 233.266 -1165.435 243.587 Q -1174.896 253.908 -1181.220 262.973 Q -1187.543 272.039 -1190.599 279.308 Q -1193.655 286.578 -1193.611 293.769 Q -1193.567 300.960 -1187.316 306.428 Q -1181.065 311.896 -1173.786 315.275 Q -1166.507 318.654 -1149.328 322.977 Q -1132.149 327.300 -1092.362 327.021 Q -1052.574 326.742 -1031.668 325.857 Q -1010.762 324.973 -984.253 322.783 Q -957.745 320.593 -925.007 317.719 Q -892.270 314.846 -844.392 309.298 Q -796.513 303.749 -745.286 296.917 "></path>
    <path id="emma" opacity="1.000" fill="none" stroke="#ffffff" stroke-width="10.782" stroke-opacity="1.000" stroke-linecap="round" stroke-linejoin="round" d="M -883.845 307.968 Q -879.490 307.222 -879.914 307.011 Q -878.614 305.433 -819.241 274.179 Q -819.241 278.638 -819.241 277.898 Q -818.961 282.288 -818.816 281.616 Q -817.872 283.887 -813.231 288.736 Q -808.591 293.585 -796.413 291.731 Q -784.236 289.878 -775.349 285.833 Q -766.462 281.789 -762.209 279.941 Q -757.956 278.092 -755.113 276.742 Q -752.270 275.392 -749.933 273.634 Q -747.595 271.875 -745.923 270.566 Q -748.759 276.218 -747.942 274.710 Q -748.954 276.687 -749.585 279.930 Q -750.215 283.173 -746.253 288.229 Q -742.292 293.285 -736.095 295.271 Q -729.898 297.258 -718.276 295.774 Q -706.654 294.290 -696.629 295.396 Q -686.603 296.502 -676.431 296.917 "></path>
    <path id="emma" opacity="1.000" fill="none" stroke="#ffffff" stroke-width="10.782" stroke-opacity="1.000" stroke-linecap="round" stroke-linejoin="round" d="M -650.930 298.405 Q -650.930 298.617 -650.930 298.830 Q -651.404 298.915 -650.360 298.988 Q -649.316 299.061 -644.685 296.262 Q -640.053 293.464 -636.157 290.499 Q -632.261 287.533 -628.984 284.776 Q -625.707 282.019 -624.063 280.438 Q -622.419 278.857 -621.785 278.355 Q -621.151 277.853 -620.646 277.792 Q -620.466 284.006 -620.540 282.679 Q -620.222 281.209 -620.602 286.672 Q -620.983 292.134 -620.298 296.557 Q -619.614 300.981 -611.202 305.529 Q -602.790 310.078 -567.199 290.542 Q -566.495 289.721 -567.746 293.486 Q -568.997 297.250 -558.112 299.127 Q -547.226 301.004 -533.145 298.761 Q -519.063 296.518 -503.445 297.342 "></path>
    <path id="emma" opacity="1.000" fill="none" stroke="#ffffff" stroke-width="10.782" stroke-opacity="1.000" stroke-linecap="round" stroke-linejoin="round" d="M -463.492 292.242 Q -462.377 296.200 -462.323 295.005 Q -458.638 296.541 -459.135 296.280 Q -458.018 296.443 -453.236 296.913 Q -448.454 297.384 -439.616 293.541 Q -430.778 289.698 -426.433 286.387 Q -422.088 283.075 -420.671 277.792 Q -422.299 276.638 -428.407 275.738 Q -434.516 274.839 -440.987 276.794 Q -447.459 278.749 -447.826 283.406 Q -448.193 288.063 -439.244 293.852 Q -430.296 299.641 -411.906 302.531 Q -393.517 305.422 -366.646 305.037 Q -339.774 304.652 -302.619 301.167 "></path>
    <path id="STROKE_754f9fe5-a34c-48d2-a851-7b5c01494450" opacity="1.000" fill="none" stroke="#a43b7b" stroke-width="10.782" stroke-opacity="1.000" stroke-linecap="round" stroke-linejoin="round" d="M -299.219 -7.181 Q -297.245 -7.834 -278.905 -11.513 Q -260.565 -15.192 -198.159 -30.647 Q -135.753 -46.103 -97.824 -54.689 Q -59.895 -63.276 -30.241 -68.187 Q -0.587 -73.098 25.675 -76.896 Q 51.936 -80.694 85.516 -82.815 Q 119.096 -84.936 159.174 -82.197 "></path>
    <path id="STROKE_89344b51-9756-426b-b2d3-d9e20e546c70" opacity="1.000" fill="none" stroke="#a43b7b" stroke-width="10.782" stroke-opacity="1.000" stroke-linecap="round" stroke-linejoin="round" d="M -120.495 -122.786 Q -122.636 -124.910 -142.216 -99.320 Q -161.795 -73.730 -172.669 -55.188 Q -183.542 -36.645 -189.539 -25.934 Q -195.536 -15.224 -203.858 0.028 Q -212.180 15.280 -226.068 41.365 Q -239.956 67.450 -249.215 85.419 Q -258.474 103.388 -270.544 127.036 Q -282.614 150.683 -299.503 190.601 Q -316.392 230.519 -326.272 258.111 Q -336.152 285.704 -343.434 312.552 Q -350.717 339.400 -353.836 353.170 Q -356.955 366.939 -359.191 382.890 Q -361.427 398.840 -361.583 407.814 Q -361.739 416.789 -359.824 423.278 Q -357.909 429.767 -355.807 433.105 Q -353.705 436.443 -348.097 439.935 "></path>
    <path id="STROKE_a1746bf9-e09b-47ca-986b-1b1128c3e5d1" opacity="1.000" fill="none" stroke="#a43b7b" stroke-width="10.782" stroke-opacity="1.000" stroke-linecap="round" stroke-linejoin="round" d="M -248.325 282.451 Q -252.480 282.451 -251.284 282.451 Q -254.307 283.412 -257.545 280.974 Q -260.783 278.536 -261.641 276.421 Q -262.499 274.305 -262.475 273.929 Q -262.451 273.553 -262.756 272.947 Q -263.061 272.341 -260.407 267.608 Q -257.754 262.875 -248.996 255.480 Q -240.239 248.084 -232.894 243.185 Q -225.548 238.286 -217.763 234.929 Q -209.977 231.573 -204.388 230.568 Q -198.799 229.563 -195.931 229.636 Q -193.063 229.710 -190.678 232.565 Q -188.293 235.421 -192.447 242.775 Q -196.601 250.128 -199.562 254.605 Q -202.523 259.081 -203.794 262.833 Q -205.065 266.584 -205.654 272.369 Q -206.244 278.154 -206.098 281.419 Q -205.952 284.683 -202.983 287.598 Q -200.014 290.513 -173.264 278.842 "></path>
    <path id="STROKE_d0a902f8-efba-4fc4-91f9-9b0cc54d42a9" opacity="1.000" fill="none" stroke="#a43b7b" stroke-width="10.782" stroke-opacity="1.000" stroke-linecap="round" stroke-linejoin="round" d="M -141.796 291.689 Q -138.720 292.061 -130.441 291.142 Q -122.162 290.223 -114.967 284.698 Q -107.772 279.174 -104.620 275.340 Q -101.467 271.506 -99.588 269.101 Q -97.709 266.696 -97.156 263.673 Q -96.604 260.650 -96.275 257.771 Q -95.946 254.892 -99.823 253.086 Q -103.700 251.281 -107.740 251.627 Q -111.781 251.973 -118.724 254.733 Q -125.667 257.492 -129.690 259.924 Q -133.714 262.355 -138.355 265.685 Q -142.996 269.015 -143.384 279.853 "></path>
    <path id="STROKE_1563b920-cb9e-4ae9-af64-529c2ba36e14" opacity="1.000" fill="none" stroke="#a43b7b" stroke-width="10.782" stroke-opacity="1.000" stroke-linecap="round" stroke-linejoin="round" d="M -69.477 292.122 Q -70.290 291.577 -67.915 287.789 Q -65.539 284.002 -58.251 277.564 Q -50.963 271.126 -46.672 267.963 Q -42.381 264.801 -39.468 263.294 Q -36.554 261.787 -27.905 260.294 Q -26.561 260.578 -25.480 267.097 Q -24.399 273.615 -21.987 278.046 Q -19.576 282.476 -18.138 284.083 Q -16.701 285.690 -11.568 287.337 Q -6.436 288.985 3.667 285.195 Q 13.769 281.406 22.937 275.758 Q 32.104 270.109 37.595 266.227 Q 43.086 262.344 51.342 260.871 Q 51.966 262.525 52.695 269.093 Q 53.423 275.662 60.788 280.386 Q 68.154 285.110 78.106 288.119 Q 88.059 291.127 102.585 291.689 "></path>
    <path id="STROKE_1f8293ad-04c2-4fc0-b073-f6f88579f699" opacity="1.000" fill="none" stroke="#a43b7b" stroke-width="10.782" stroke-opacity="1.000" stroke-linecap="round" stroke-linejoin="round" d="M 123.371 234.240 Q 122.956 234.566 124.959 230.920 Q 125.107 232.558 123.371 234.240 Q 122.956 234.570 124.959 230.920 Q 124.959 231.064 124.959 231.570 Q 124.959 232.075 124.959 232.652 "></path>
  </g>
</svg>