<?xml version="1.0" encoding="UTF-8" standalone="yes"?>
<svg xmlns="http://www.w3.org/2000/svg" xmlns:xlink="http://www.w3.org/1999/xlink" width="535.086pt" height="611.221pt" version="1.1" viewBox="659.117 439.322 535.086 611.221">
  <!--
	Exported with Concepts: Smarter Sketching
	Version: 2023.01.9 on Android 13
	https://concepts.app/
	-->
  <title>Profile 2</title>
  <desc>Drawing exported from Concepts: Smarter Sketching</desc>
  <defs></defs>
  <g id="Nuovo_livello_1_Copia_1" opacity="1.000">
    <path id="STROKE_bcc231f3-0763-404c-840d-47daf57bc2d6" opacity="1.000" fill="none" stroke="#ffffff" stroke-width="2.473" stroke-opacity="1.000" stroke-linecap="round" stroke-linejoin="round" d="M 866.917 591.529 Q 866.917 591.520 866.917 591.512 Q 866.784 591.468 867.201 594.365 Q 867.619 597.263 867.770 598.806 Q 867.920 600.349 868.125 601.523 Q 868.329 602.698 868.663 603.568 "></path>
    <path id="STROKE_fd99e3c2-b427-4522-bfb9-fbe67bfe7a80" opacity="1.000" fill="none" stroke="#ffffff" stroke-width="1.721" stroke-opacity="1.000" stroke-linecap="round" stroke-linejoin="round" d="M 892.385 602.550 Q 892.385 602.542 892.385 602.533 Q 891.827 602.487 892.325 606.412 Q 892.823 610.338 893.130 612.885 Q 893.437 615.432 893.637 616.881 Q 893.837 618.329 894.031 623.399 Q 894.224 628.469 894.267 631.112 Q 894.310 633.755 894.328 634.894 Q 894.347 636.033 894.286 638.410 Q 894.224 640.786 894.081 643.159 "></path>
    <path id="STROKE_b34e2a7a-0020-427e-a22b-4e122e88462a" opacity="1.000" fill="none" stroke="#ffffff" stroke-width="1.721" stroke-opacity="1.000" stroke-linecap="round" stroke-linejoin="round" d="M 890.520 656.469 Q 890.176 656.675 890.223 656.664 Q 889.850 656.906 889.382 657.925 Q 888.914 658.943 888.794 660.289 Q 888.675 661.635 888.769 662.608 Q 888.863 663.580 889.498 665.091 Q 890.134 666.602 890.924 667.844 Q 891.714 669.086 892.554 670.009 Q 893.394 670.932 894.673 671.747 Q 895.952 672.562 896.885 672.990 Q 897.818 673.417 900.049 674.086 "></path>
    <path id="STROKE_bc65bbda-abb3-42ee-a2b6-e33cf92d0416" opacity="1.000" fill="none" stroke="#ffffff" stroke-width="1.721" stroke-opacity="1.000" stroke-linecap="round" stroke-linejoin="round" d="M 925.602 584.424 Q 925.489 584.362 925.371 584.290 Q 925.253 584.219 925.270 584.224 Q 925.287 584.229 925.287 584.244 Q 925.287 584.259 925.199 584.093 Q 925.111 583.927 924.941 583.305 Q 925.183 583.462 925.979 584.511 Q 926.774 585.559 927.167 586.150 Q 927.561 586.741 927.842 587.135 Q 928.123 587.530 928.928 588.545 Q 929.733 589.561 930.430 590.763 Q 931.127 591.964 931.505 592.526 Q 931.884 593.087 932.056 593.307 Q 932.228 593.527 932.371 593.665 Q 932.514 593.804 932.616 593.895 Q 932.718 593.986 932.792 593.987 "></path>
    <path id="STROKE_96ccc97b-b55c-47cd-a305-7eb0a0b17bf2" opacity="1.000" fill="none" stroke="#ffffff" stroke-width="1.721" stroke-opacity="1.000" stroke-linecap="round" stroke-linejoin="round" d="M 930.689 582.475 Q 930.624 582.459 930.895 582.495 Q 931.166 582.531 931.378 583.515 Q 931.590 584.498 931.870 586.293 Q 932.150 588.088 932.327 590.053 Q 932.505 592.018 933.427 596.310 L 933.436 596.310 Q 933.426 596.285 933.521 595.895 Q 933.563 595.887 933.639 595.920 "></path>
    <path id="STROKE_29e79c4f-9ee7-4562-809f-1c2abe1a21ad" opacity="1.000" fill="none" stroke="#ffffff" stroke-width="1.721" stroke-opacity="1.000" stroke-linecap="round" stroke-linejoin="round" d="M 934.080 585.238 Q 933.998 585.165 933.951 584.910 Q 933.903 584.655 935.142 583.982 Q 936.382 583.309 938.645 582.637 Q 940.908 581.965 942.274 581.631 Q 943.641 581.296 945.918 580.859 Q 948.195 580.422 949.553 580.208 Q 950.911 579.993 953.553 579.659 Q 956.194 579.325 959.276 579.042 Q 962.357 578.758 964.672 578.624 Q 966.988 578.490 968.233 578.456 Q 969.478 578.421 970.157 578.425 Q 970.837 578.430 972.007 578.377 Q 973.177 578.325 977.991 578.321 Q 982.804 578.316 986.237 578.417 Q 989.670 578.517 993.311 578.741 Q 996.952 578.966 999.052 579.207 Q 1001.153 579.449 1002.578 579.643 Q 1004.003 579.837 1008.179 580.796 "></path>
    <path id="STROKE_585b38da-98e4-4d37-be29-80c9204175c4" opacity="1.000" fill="none" stroke="#ffffff" stroke-width="1.721" stroke-opacity="1.000" stroke-linecap="round" stroke-linejoin="round" d="M 933.317 596.260 Q 933.231 595.867 933.249 595.861 Q 933.253 595.913 933.228 595.721 Q 933.202 595.528 933.709 595.254 Q 934.216 594.980 935.155 594.745 Q 936.094 594.509 937.289 594.263 Q 938.484 594.017 940.805 593.685 Q 943.126 593.353 945.328 593.084 Q 947.530 592.816 950.105 592.536 Q 952.680 592.256 956.065 591.943 Q 959.449 591.630 962.548 591.373 Q 965.647 591.115 967.179 591.011 Q 968.711 590.906 971.194 590.705 Q 973.677 590.503 978.505 590.268 Q 983.333 590.034 985.798 589.986 Q 988.263 589.939 992.772 589.859 Q 997.281 589.780 1007.738 589.766 "></path>
    <path id="STROKE_17ef1f15-9de1-4bf6-b8fd-30d01c742aa9" opacity="1.000" fill="none" stroke="#ffffff" stroke-width="1.721" stroke-opacity="1.000" stroke-linecap="round" stroke-linejoin="round" d="M 1005.992 580.474 Q 1006.277 580.481 1007.765 583.139 Q 1009.253 585.796 1010.283 588.090 Q 1011.313 590.384 1011.892 591.940 Q 1012.470 593.496 1012.746 594.562 Q 1013.023 595.627 1013.401 596.497 "></path>
    <path id="STROKE_19fcdb7f-5c44-4976-862e-95a1b5592eff" opacity="1.000" fill="none" stroke="#ffffff" stroke-width="1.721" stroke-opacity="1.000" stroke-linecap="round" stroke-linejoin="round" d="M 959.158 631.171 Q 959.122 631.292 959.183 631.232 Q 959.243 631.172 958.600 631.952 Q 957.957 632.732 957.317 633.448 Q 956.677 634.163 955.248 636.003 Q 953.819 637.843 953.041 638.935 Q 952.263 640.028 951.864 640.615 Q 951.464 641.202 950.860 641.963 Q 950.257 642.724 949.883 643.549 "></path>
    <path id="STROKE_68373c17-3004-4930-9f0d-43306b7ddaab" opacity="1.000" fill="none" stroke="#ffffff" stroke-width="1.721" stroke-opacity="1.000" stroke-linecap="round" stroke-linejoin="round" d="M 969.892 629.578 Q 969.980 629.688 969.266 630.463 Q 968.553 631.238 966.471 633.372 Q 964.390 635.506 960.295 641.006 "></path>
    <path id="STROKE_c808cf5b-8b2e-448b-945a-0b8cd733c726" opacity="1.000" fill="none" stroke="#ffffff" stroke-width="1.721" stroke-opacity="1.000" stroke-linecap="round" stroke-linejoin="round" d="M 985.848 627.373 Q 986.100 627.420 983.664 629.441 Q 981.229 631.461 979.693 632.826 Q 978.156 634.191 977.310 635.035 Q 976.463 635.878 974.826 637.801 "></path>
    <path id="STROKE_7f4a15a9-9657-4d68-9e53-2529d658ac6f" opacity="1.000" fill="none" stroke="#ffffff" stroke-width="1.721" stroke-opacity="1.000" stroke-linecap="round" stroke-linejoin="round" d="M 852.266 643.668 Q 852.378 643.610 853.063 643.312 Q 853.107 643.334 852.143 644.419 Q 851.179 645.503 849.395 647.608 Q 847.611 649.712 842.941 655.672 "></path>
    <path id="STROKE_d15f55cb-ba2f-4887-a44f-f2109fa3586d" opacity="1.000" fill="none" stroke="#ffffff" stroke-width="1.721" stroke-opacity="1.000" stroke-linecap="round" stroke-linejoin="round" d="M 862.355 644.906 Q 862.076 645.185 859.168 648.280 "></path>
    <path id="STROKE_665656ec-3532-4f31-82c1-29d59f9c4733" opacity="1.000" fill="none" stroke="#ffffff" stroke-width="1.721" stroke-opacity="1.000" stroke-linecap="round" stroke-linejoin="round" d="M 876.175 640.243 Q 876.196 640.389 873.774 643.022 Q 871.351 645.655 870.012 647.275 Q 868.673 648.895 867.919 649.834 Q 867.164 650.774 865.781 652.502 "></path>
    <path id="STROKE_33ada0ed-de0a-46fb-b24e-c607ca3720b7" opacity="1.000" fill="none" stroke="#ffffff" stroke-width="2.247" stroke-opacity="1.000" stroke-linecap="round" stroke-linejoin="round" d="M 837.892 473.993 Q 837.221 471.768 848.988 467.152 Q 860.756 462.535 874.675 458.689 Q 888.593 454.843 901.594 452.321 Q 914.594 449.800 924.871 448.636 Q 935.148 447.473 946.850 446.944 Q 958.553 446.416 974.470 447.990 "></path>
    <path id="STROKE_93411098-3dd4-4ed8-ad28-2687949ae4d3" opacity="1.000" fill="none" stroke="#ffffff" stroke-width="2.247" stroke-opacity="1.000" stroke-linecap="round" stroke-linejoin="round" d="M 905.577 491.150 Q 905.762 490.621 899.492 487.297 Q 893.223 483.973 887.655 481.027 Q 882.086 478.080 876.235 476.373 Q 870.383 474.665 867.591 474.007 Q 864.800 473.348 861.802 473.105 Q 858.804 472.862 855.037 472.696 Q 851.270 472.530 845.673 473.779 Q 840.076 475.029 836.341 476.316 Q 832.605 477.604 829.594 479.123 Q 826.583 480.642 824.208 482.165 Q 821.834 483.688 818.597 486.563 Q 815.359 489.438 811.802 494.487 Q 808.245 499.535 805.027 506.479 Q 801.810 513.422 799.790 521.054 Q 797.770 528.687 797.089 534.788 Q 796.407 540.890 796.255 544.073 Q 796.102 547.256 796.021 556.587 Q 795.940 565.918 798.132 580.861 Q 800.324 595.804 803.003 609.589 Q 805.683 623.374 806.828 630.108 Q 807.974 636.843 808.479 639.933 Q 808.984 643.022 810.162 651.245 Q 811.341 659.468 811.997 666.302 Q 812.653 673.137 815.482 686.513 Q 818.311 699.889 821.834 713.001 "></path>
    <path id="STROKE_5d3c1331-d28c-4826-b5f5-889e887a44a4" opacity="1.000" fill="none" stroke="#ffffff" stroke-width="2.247" stroke-opacity="1.000" stroke-linecap="round" stroke-linejoin="round" d="M 794.057 589.310 Q 794.176 589.015 795.801 586.415 Q 795.763 586.374 797.717 593.534 Q 799.671 600.694 800.381 609.277 Q 801.090 617.860 800.784 626.117 Q 800.477 634.374 799.921 639.306 Q 799.364 644.238 798.764 649.525 Q 798.164 654.813 795.975 664.385 Q 793.786 673.957 791.883 679.902 Q 789.979 685.847 788.783 688.738 Q 787.587 691.629 784.640 700.273 Q 781.693 708.917 780.333 713.767 Q 778.973 718.618 778.246 720.867 Q 777.519 723.116 776.226 730.082 Q 774.932 737.048 774.518 741.062 Q 774.104 745.076 773.799 751.660 Q 773.493 758.244 773.947 765.312 Q 774.401 772.379 775.621 779.072 Q 776.840 785.765 778.121 790.716 Q 779.403 795.666 781.631 802.490 Q 783.860 809.313 790.925 829.955 "></path>
    <path id="STROKE_8b117c49-31bf-4f4a-83ff-0de09351fd36" opacity="1.000" fill="none" stroke="#ffffff" stroke-width="2.247" stroke-opacity="1.000" stroke-linecap="round" stroke-linejoin="round" d="M 927.680 497.178 Q 928.622 495.333 933.233 491.007 Q 937.844 486.681 946.643 481.098 Q 955.441 475.516 965.006 470.215 Q 974.572 464.914 984.238 460.183 "></path>
    <path id="STROKE_f78a0009-0c18-45e6-987a-f20282be5f91" opacity="1.000" fill="none" stroke="#ffffff" stroke-width="2.247" stroke-opacity="1.000" stroke-linecap="round" stroke-linejoin="round" d="M 1002.736 458.469 Q 1002.790 457.862 1005.356 456.970 Q 1007.922 456.077 1011.763 456.861 Q 1015.605 457.645 1021.341 460.288 Q 1027.077 462.931 1033.397 467.524 Q 1039.717 472.116 1044.710 476.690 Q 1049.704 481.265 1053.489 484.965 Q 1057.273 488.665 1060.771 493.123 Q 1064.270 497.581 1066.519 500.490 Q 1068.768 503.398 1073.007 510.887 Q 1077.246 518.375 1081.160 529.102 Q 1085.075 539.830 1087.199 547.510 Q 1089.323 555.190 1090.293 559.144 Q 1091.262 563.099 1091.789 565.311 Q 1092.315 567.524 1094.390 577.241 Q 1096.464 586.959 1098.586 599.376 Q 1100.708 611.793 1102.416 627.122 Q 1104.123 642.450 1105.063 651.514 Q 1106.004 660.578 1106.573 667.142 "></path>
    <path id="STROKE_bc6ba353-f9e9-4643-84a6-85635bafdc78" opacity="1.000" fill="none" stroke="#ffffff" stroke-width="2.247" stroke-opacity="1.000" stroke-linecap="round" stroke-linejoin="round" d="M 949.015 507.697 Q 948.512 507.494 951.829 509.832 Q 955.147 512.171 959.531 515.307 Q 963.915 518.443 968.799 522.299 Q 973.684 526.155 976.870 529.242 Q 980.056 532.329 984.174 536.319 Q 988.292 540.308 993.638 547.341 Q 998.984 554.375 1001.348 558.080 Q 1003.712 561.785 1008.097 568.593 Q 1012.482 575.402 1017.068 584.864 Q 1021.655 594.326 1023.774 599.288 Q 1025.893 604.249 1026.604 606.424 Q 1027.314 608.599 1028.381 610.969 Q 1029.447 613.338 1032.038 623.019 Q 1034.628 632.700 1035.799 639.869 Q 1036.969 647.038 1037.618 651.344 Q 1038.268 655.650 1038.857 661.481 Q 1039.447 667.312 1039.705 678.911 Q 1039.963 690.509 1038.727 706.087 "></path>
    <path id="STROKE_e5d18091-a7b1-4d47-858f-f89032e75c95" opacity="1.000" fill="none" stroke="#ffffff" stroke-width="2.247" stroke-opacity="1.000" stroke-linecap="round" stroke-linejoin="round" d="M 1006.400 530.627 Q 1007.159 531.221 1013.635 536.723 Q 1020.111 542.224 1024.964 546.908 Q 1029.816 551.592 1034.390 558.825 Q 1038.964 566.057 1041.104 570.006 Q 1043.243 573.955 1045.080 577.676 Q 1046.917 581.396 1047.801 583.157 Q 1048.684 584.918 1050.799 589.966 Q 1052.915 595.013 1054.348 598.509 Q 1055.781 602.004 1058.401 611.033 Q 1061.021 620.062 1062.575 628.959 Q 1064.129 637.857 1064.703 645.502 Q 1065.277 653.147 1065.306 658.594 Q 1065.336 664.041 1065.315 666.976 Q 1065.295 669.911 1065.353 673.921 Q 1065.411 677.931 1064.097 689.323 Q 1062.782 700.716 1061.910 706.464 Q 1061.037 712.211 1060.595 715.391 Q 1060.152 718.571 1056.569 736.259 Q 1052.985 753.948 1049.607 768.797 Q 1046.229 783.647 1035.418 838.406 "></path>
    <path id="STROKE_6b9a5dfe-418b-46e0-b1cb-055087531fec" opacity="1.000" fill="none" stroke="#ffffff" stroke-width="2.247" stroke-opacity="1.000" stroke-linecap="round" stroke-linejoin="round" d="M 1093.039 684.457 Q 1093.039 684.428 1093.039 684.132 L 1092.980 684.102 Q 1092.765 684.439 1092.037 689.694 Q 1091.309 694.949 1093.469 704.607 Q 1095.628 714.266 1097.725 721.120 Q 1099.821 727.973 1101.359 732.613 Q 1102.898 737.252 1103.900 740.233 Q 1104.901 743.214 1107.894 752.734 Q 1110.887 762.254 1113.837 772.385 Q 1116.787 782.516 1118.174 787.532 Q 1119.560 792.548 1120.183 795.036 Q 1120.806 797.525 1121.801 801.151 Q 1122.796 804.777 1125.018 814.426 Q 1127.240 824.075 1128.286 833.881 Q 1129.332 843.687 1129.509 848.478 Q 1129.685 853.270 1129.564 858.574 Q 1129.442 863.879 1128.388 869.688 Q 1127.334 875.498 1125.433 882.462 Q 1123.531 889.427 1116.591 902.559 Q 1109.652 915.691 1105.831 922.360 Q 1102.010 929.029 1100.041 932.160 Q 1098.072 935.292 1096.298 938.388 Q 1094.525 941.484 1089.671 950.690 "></path>
    <path id="STROKE_2a303c0f-f8af-498b-a34f-329a5230fedf" opacity="1.000" fill="none" stroke="#ffffff" stroke-width="2.247" stroke-opacity="1.000" stroke-linecap="round" stroke-linejoin="round" d="M 1025.016 681.798 Q 1025.016 681.768 1024.898 681.561 Q 1024.056 681.642 1024.248 681.739 Q 1023.974 681.962 1023.502 682.664 Q 1023.030 683.366 1023.086 683.350 Q 1023.142 683.335 1023.133 683.457 Q 1023.124 683.578 1023.100 683.288 Q 1023.076 682.998 1021.676 687.962 Q 1020.276 692.925 1018.947 700.092 Q 1017.617 707.259 1016.791 713.900 Q 1015.964 720.542 1015.864 725.112 Q 1015.765 729.682 1015.750 731.977 Q 1015.736 734.272 1015.678 735.919 Q 1015.620 737.567 1015.635 739.330 Q 1015.650 741.092 1015.688 742.604 Q 1015.727 744.115 1015.577 754.606 Q 1015.426 765.096 1015.554 774.136 Q 1015.683 783.175 1016.657 790.541 Q 1017.631 797.906 1018.071 801.810 Q 1018.511 805.714 1022.334 821.888 Q 1026.158 838.063 1028.785 847.276 Q 1031.411 856.490 1032.574 860.998 Q 1033.736 865.506 1034.573 867.574 Q 1035.410 869.642 1039.299 885.974 Q 1043.189 902.307 1044.876 911.050 Q 1046.563 919.794 1047.280 923.814 Q 1047.998 927.833 1048.386 930.151 Q 1048.774 932.469 1049.353 936.693 Q 1049.932 940.917 1050.242 946.432 Q 1050.552 951.947 1050.060 959.253 Q 1049.568 966.559 1045.524 980.298 "></path>
    <path id="STROKE_fcf2cf63-fb8c-49ac-beb8-c0d069aa0342" opacity="1.000" fill="none" stroke="#ffffff" stroke-width="2.247" stroke-opacity="1.000" stroke-linecap="round" stroke-linejoin="round" d="M 823.242 613.560 Q 823.278 613.450 824.176 612.413 Q 825.074 611.376 826.693 610.244 Q 828.312 609.111 830.156 608.001 Q 832.000 606.891 834.080 605.952 Q 836.160 605.013 837.234 604.569 Q 838.308 604.125 839.940 603.639 Q 841.572 603.154 842.468 602.928 Q 843.363 602.702 844.653 602.458 Q 845.944 602.213 847.369 602.022 Q 848.794 601.831 851.612 601.700 Q 854.431 601.570 861.769 602.605 "></path>
    <path id="STROKE_1232b802-c2b4-4824-afba-641e24dadc68" opacity="1.000" fill="none" stroke="#ffffff" stroke-width="2.247" stroke-opacity="1.000" stroke-linecap="round" stroke-linejoin="round" d="M 825.667 649.031 Q 825.452 647.745 825.524 647.835 Q 825.544 647.330 825.751 646.172 L 825.773 646.166 Q 825.949 646.981 826.094 650.539 Q 826.240 654.098 827.034 657.948 Q 827.827 661.798 829.304 665.929 Q 830.781 670.060 832.941 674.614 Q 835.100 679.169 838.719 685.341 Q 842.338 691.514 846.343 696.999 Q 850.347 702.484 854.187 706.967 Q 858.026 711.450 861.074 714.477 Q 864.122 717.504 865.692 718.947 Q 867.263 720.390 870.469 723.107 Q 873.675 725.824 876.383 728.084 Q 879.091 730.345 884.222 733.778 Q 889.352 737.212 892.379 738.916 Q 895.406 740.619 899.233 742.587 Q 903.060 744.554 910.274 748.269 Q 917.489 751.984 924.597 755.575 "></path>
    <path id="STROKE_570fb7d1-4ece-4d1b-9b08-e229c333cb0c" opacity="1.000" fill="none" stroke="#ffffff" stroke-width="2.247" stroke-opacity="1.000" stroke-linecap="round" stroke-linejoin="round" d="M 926.397 754.790 Q 926.981 754.817 936.680 750.604 Q 946.378 746.391 955.153 741.662 Q 963.928 736.934 967.991 734.471 Q 972.055 732.009 976.845 729.152 Q 981.636 726.294 986.340 723.297 Q 991.044 720.300 997.899 715.263 Q 1004.755 710.226 1014.708 702.523 "></path>
    <path id="STROKE_44ba6c37-c687-4980-9ed2-360bf899124e" opacity="1.000" fill="none" stroke="#ffffff" stroke-width="2.247" stroke-opacity="1.000" stroke-linecap="round" stroke-linejoin="round" d="M 834.525 625.519 Q 834.525 625.497 834.525 625.432 Q 834.481 625.410 834.264 625.301 Q 834.760 626.500 834.634 626.149 Q 834.847 626.959 836.915 629.908 "></path>
    <path id="STROKE_d9eb62df-72eb-42be-b2cf-518d065ccdee" opacity="1.000" fill="none" stroke="#ffffff" stroke-width="2.247" stroke-opacity="1.000" stroke-linecap="round" stroke-linejoin="round" d="M 837.263 628.735 Q 837.375 629.032 837.282 628.394 Q 837.188 627.755 839.747 626.432 Q 842.305 625.108 844.856 624.182 Q 847.407 623.256 850.090 622.754 Q 852.772 622.251 854.680 622.078 Q 856.588 621.905 859.210 623.172 "></path>
    <path id="STROKE_ea821e25-5f67-4849-890e-7a54834195a5" opacity="1.000" fill="none" stroke="#ffffff" stroke-width="2.247" stroke-opacity="1.000" stroke-linecap="round" stroke-linejoin="round" d="M 945.562 615.306 Q 945.562 615.350 945.562 615.480 Q 945.519 615.480 945.476 615.458 Q 945.559 614.552 945.562 614.850 Q 944.779 614.791 949.194 612.973 Q 953.609 611.156 958.082 610.403 Q 962.554 609.651 965.575 609.323 Q 968.596 608.994 972.092 609.374 Q 975.588 609.755 977.991 610.524 Q 980.394 611.294 983.328 612.829 "></path>
    <path id="STROKE_3239f8c5-b1ab-49f9-998f-d2fa0a546f19" opacity="1.000" fill="none" stroke="#ffffff" stroke-width="2.247" stroke-opacity="1.000" stroke-linecap="round" stroke-linejoin="round" d="M 988.283 610.395 Q 988.679 609.651 988.696 609.641 Q 988.713 609.630 988.738 609.584 Q 988.764 609.538 988.660 609.617 Q 988.556 609.697 989.152 609.266 Q 989.903 608.791 986.762 614.567 "></path>
    <path id="STROKE_b2ae7a95-45bf-443c-8f96-8a54c0895a7a" opacity="1.000" fill="none" stroke="#ffffff" stroke-width="2.247" stroke-opacity="1.000" stroke-linecap="round" stroke-linejoin="round" d="M 833.308 540.472 Q 832.717 539.912 836.150 534.067 Q 839.582 528.221 841.830 525.181 Q 844.077 522.141 845.225 520.678 Q 846.373 519.215 847.540 517.889 Q 848.707 516.563 849.772 515.272 Q 850.837 513.981 854.455 510.351 Q 858.073 506.721 863.185 502.861 Q 868.298 499.001 874.601 495.574 Q 880.904 492.148 888.849 489.148 "></path>
    <path id="STROKE_9ce100c9-e26d-4a5b-a325-5701842ee102" opacity="1.000" fill="none" stroke="#ffffff" stroke-width="2.247" stroke-opacity="1.000" stroke-linecap="round" stroke-linejoin="round" d="M 900.429 756.473 Q 900.429 756.445 900.429 756.417 Q 901.007 755.980 902.761 761.257 Q 904.515 766.533 905.272 769.802 Q 906.030 773.071 906.516 775.071 Q 907.001 777.070 907.276 794.719 "></path>
    <path id="STROKE_b9e95b97-4053-41ab-8a17-36c21247ff6d" opacity="1.000" fill="none" stroke="#ffffff" stroke-width="2.247" stroke-opacity="1.000" stroke-linecap="round" stroke-linejoin="round" d="M 870.254 774.399 Q 869.829 775.841 868.193 779.297 Q 866.557 782.754 864.983 786.241 Q 863.408 789.729 858.619 797.780 "></path>
    <path id="STROKE_61ac929d-3c60-472f-88bb-44169e8b2081" opacity="1.000" fill="none" stroke="#ffffff" stroke-width="2.247" stroke-opacity="1.000" stroke-linecap="round" stroke-linejoin="round" d="M 872.426 774.287 Q 873.451 773.428 880.868 772.840 Q 888.285 772.252 896.810 773.564 "></path>
    <path id="STROKE_5e32c33f-07f9-4a4b-b6e5-6dbce51adc30" opacity="1.000" fill="none" stroke="#ffffff" stroke-width="2.247" stroke-opacity="1.000" stroke-linecap="round" stroke-linejoin="round" d="M 887.457 779.075 Q 885.633 780.295 890.502 785.406 Q 895.370 790.518 898.759 793.219 Q 902.148 795.920 904.207 797.590 Q 906.266 799.260 910.439 801.647 Q 914.613 804.034 923.978 807.189 "></path>
    <path id="STROKE_d589394f-4c76-4dea-b84a-d6fd1035c577" opacity="1.000" fill="none" stroke="#ffffff" stroke-width="2.247" stroke-opacity="1.000" stroke-linecap="round" stroke-linejoin="round" d="M 926.648 808.839 Q 925.148 810.062 928.952 832.418 "></path>
    <path id="STROKE_339688ff-5fa8-452b-895e-8b08db481849" opacity="1.000" fill="none" stroke="#ffffff" stroke-width="2.247" stroke-opacity="1.000" stroke-linecap="round" stroke-linejoin="round" d="M 870.090 810.316 Q 870.725 810.928 873.186 814.931 Q 875.648 818.933 880.383 822.914 Q 885.118 826.895 888.193 828.694 Q 891.268 830.493 896.089 832.805 Q 900.911 835.118 906.908 837.501 "></path>
    <path id="STROKE_676a6f79-4335-400a-83bf-f3f50fe71435" opacity="1.000" fill="none" stroke="#ffffff" stroke-width="2.247" stroke-opacity="1.000" stroke-linecap="round" stroke-linejoin="round" d="M 947.805 808.425 Q 947.721 809.481 947.522 816.624 Q 947.323 823.768 946.947 830.442 Q 946.571 837.115 946.682 842.820 "></path>
    <path id="STROKE_3e149d84-faff-457a-84ad-3599f69582f5" opacity="1.000" fill="none" stroke="#ffffff" stroke-width="2.247" stroke-opacity="1.000" stroke-linecap="round" stroke-linejoin="round" d="M 945.914 842.465 Q 945.914 842.524 945.943 842.760 Q 946.812 843.636 972.390 835.728 "></path>
    <path id="STROKE_5a2924c2-4c2d-4599-93bf-fb0fa9e299bb" opacity="1.000" fill="none" stroke="#ffffff" stroke-width="2.247" stroke-opacity="1.000" stroke-linecap="round" stroke-linejoin="round" d="M 952.410 807.681 Q 952.321 807.651 951.701 807.356 Q 952.177 806.312 956.266 805.595 Q 960.356 804.877 971.673 799.944 Q 982.989 795.010 994.843 788.651 "></path>
    <path id="STROKE_85dffcb7-8882-470e-a132-5048744a6f3f" opacity="1.000" fill="none" stroke="#ffffff" stroke-width="2.247" stroke-opacity="1.000" stroke-linecap="round" stroke-linejoin="round" d="M 959.857 840.361 Q 960.357 840.360 964.036 839.115 Q 967.714 837.871 970.945 836.244 Q 974.175 834.618 976.655 833.427 Q 979.134 832.237 987.275 826.911 Q 995.415 821.585 1006.781 811.995 "></path>
    <path id="STROKE_4adb0ccf-31d4-4079-b83d-5096961a0236" opacity="1.000" fill="none" stroke="#ffffff" stroke-width="2.247" stroke-opacity="1.000" stroke-linecap="round" stroke-linejoin="round" d="M 994.843 736.468 Q 994.784 736.468 994.607 736.409 Q 994.607 735.595 994.607 735.759 Q 994.784 734.326 994.742 734.762 Q 994.701 735.199 994.725 734.193 Q 993.077 734.795 992.429 744.203 Q 991.781 753.611 996.557 771.158 "></path>
    <path id="STROKE_99f2a4de-8fb0-4a48-baa2-f78952fe4df2" opacity="1.000" fill="none" stroke="#ffffff" stroke-width="2.247" stroke-opacity="1.000" stroke-linecap="round" stroke-linejoin="round" d="M 798.398 743.442 Q 798.642 743.200 798.206 746.732 Q 797.770 750.265 799.221 757.594 Q 800.673 764.923 801.733 768.688 Q 802.793 772.453 803.415 774.731 Q 804.037 777.008 805.635 782.189 Q 807.232 787.371 809.779 793.701 Q 812.325 800.031 814.816 805.313 Q 817.308 810.594 821.317 816.478 Q 825.326 822.362 827.949 825.724 Q 830.572 829.086 835.272 833.589 Q 839.973 838.091 843.312 840.884 Q 846.652 843.677 854.778 849.462 "></path>
    <path id="STROKE_b8c65dd9-ba3d-43e6-a15a-7ee897646e21" opacity="1.000" fill="none" stroke="#ffffff" stroke-width="2.247" stroke-opacity="1.000" stroke-linecap="round" stroke-linejoin="round" d="M 849.755 809.217 Q 849.159 807.927 838.053 812.468 "></path>
    <path id="STROKE_1233322e-927b-49b3-b994-cb9eec890e4d" opacity="1.000" fill="none" stroke="#ffffff" stroke-width="2.247" stroke-opacity="1.000" stroke-linecap="round" stroke-linejoin="round" d="M 742.313 834.511 Q 741.982 832.851 748.289 829.964 Q 754.596 827.076 758.291 825.957 Q 761.985 824.838 764.723 823.667 Q 767.462 822.497 791.129 817.077 "></path>
    <path id="STROKE_5c04c201-1c8a-4060-9574-2e9114c5436e" opacity="1.000" fill="none" stroke="#ffffff" stroke-width="2.247" stroke-opacity="1.000" stroke-linecap="round" stroke-linejoin="round" d="M 1134.553 809.749 Q 1136.464 810.129 1141.587 813.873 Q 1146.710 817.618 1155.179 825.985 Q 1163.649 834.353 1175.154 848.162 "></path>
    <path id="STROKE_238f3f2c-1919-4be2-babc-ff6eb2000a6e" opacity="1.000" fill="none" stroke="#ffffff" stroke-width="2.266" stroke-opacity="1.000" stroke-linecap="round" stroke-linejoin="round" d="M 722.965 865.433 Q 722.786 865.559 717.729 876.606 Q 712.673 887.653 706.771 904.308 Q 700.868 920.964 697.268 931.516 Q 693.668 942.069 690.846 950.259 Q 688.024 958.450 683.534 972.807 Q 679.043 987.163 676.075 997.473 Q 673.106 1007.783 666.577 1031.930 "></path>
    <path id="STROKE_a406ad78-68e5-4a9f-8304-deed3c114d0a" opacity="1.000" fill="none" stroke="#ffffff" stroke-width="2.247" stroke-opacity="1.000" stroke-linecap="round" stroke-linejoin="round" d="M 933.498 824.346 Q 933.439 824.346 933.380 824.317 Q 933.165 824.105 939.704 823.341 "></path>
    <path id="STROKE_ea7b6af3-b4e7-4de5-a094-41e61034ea69" opacity="1.000" fill="none" stroke="#ffffff" stroke-width="2.247" stroke-opacity="1.000" stroke-linecap="round" stroke-linejoin="round" d="M 834.328 808.144 Q 834.328 808.115 833.796 807.405 Q 833.606 806.759 837.446 805.967 Q 841.286 805.176 847.802 806.844 "></path>
    <path id="STROKE_a7749e7e-408f-4a34-9b75-8359255912ac" opacity="1.000" fill="none" stroke="#ffffff" stroke-width="2.247" stroke-opacity="1.000" stroke-linecap="round" stroke-linejoin="round" d="M 758.152 926.289 Q 758.022 925.716 760.325 930.773 Q 762.627 935.831 764.662 940.653 Q 766.698 945.475 768.136 948.493 Q 769.573 951.510 770.356 952.878 Q 771.138 954.245 771.922 954.951 "></path>
    <path id="STROKE_f3e55955-67ca-4fd0-bf25-1dd4879318fd" opacity="1.000" fill="none" stroke="#ffffff" stroke-width="2.247" stroke-opacity="1.000" stroke-linecap="round" stroke-linejoin="round" d="M 775.059 905.822 Q 775.024 905.709 775.266 905.172 Q 776.640 905.492 776.771 928.463 Q 776.903 951.434 776.808 965.095 Q 776.712 978.756 776.924 985.727 Q 777.135 992.698 777.383 996.026 Q 777.631 999.355 778.338 1005.982 Q 779.045 1012.609 780.554 1022.884 Q 782.064 1033.158 784.396 1043.046 "></path>
    <path id="STROKE_545dc3df-ba37-4d97-9054-2e5860b5f8b0" opacity="1.000" fill="none" stroke="#ffffff" stroke-width="2.247" stroke-opacity="1.000" stroke-linecap="round" stroke-linejoin="round" d="M 1185.148 859.221 Q 1184.980 859.872 1185.683 868.176 Q 1186.386 876.480 1186.588 883.960 Q 1186.789 891.439 1186.146 903.582 Q 1185.504 915.725 1184.862 923.984 Q 1184.220 932.243 1182.176 951.612 Q 1180.131 970.982 1178.841 983.582 Q 1177.552 996.181 1177.235 1003.235 Q 1176.917 1010.288 1176.831 1022.444 "></path>
    <path id="STROKE_60478eb1-49ea-475f-b182-9a72aca2f456" opacity="1.000" fill="none" stroke="#ffffff" stroke-width="1.517" stroke-opacity="1.000" stroke-linecap="round" stroke-linejoin="round" d="M 863.034 589.753 Q 862.963 589.529 862.562 589.124 Q 862.160 588.719 860.847 588.480 Q 859.534 588.240 858.242 588.154 Q 856.950 588.068 855.782 588.086 Q 854.613 588.103 852.822 588.129 Q 851.031 588.155 847.619 588.846 Q 844.207 589.537 840.138 591.193 Q 836.068 592.850 832.433 595.050 Q 828.798 597.250 826.697 598.859 Q 824.597 600.468 821.733 603.110 "></path>
    <path id="STROKE_d9bb747f-188c-4b49-a84d-536ec90a105a" opacity="1.000" fill="none" stroke="#ffffff" stroke-width="1.523" stroke-opacity="1.000" stroke-linecap="round" stroke-linejoin="round" d="M 822.036 602.477 Q 822.033 602.458 822.022 602.399 L 821.983 602.406 Q 821.921 602.620 821.765 603.021 Q 821.608 603.423 821.622 603.507 Q 821.636 603.591 821.455 603.698 Q 821.273 603.804 821.184 612.371 "></path>
    <path id="STROKE_9ce71fa8-5de8-46a1-abec-b182679d7f80" opacity="1.000" fill="none" stroke="#ffffff" stroke-width="2.189" stroke-opacity="1.000" stroke-linecap="round" stroke-linejoin="round" d="M 806.126 826.310 Q 805.953 827.282 805.739 829.828 Q 805.524 832.373 807.390 836.369 Q 809.256 840.365 810.780 842.821 Q 812.305 845.276 815.907 850.211 Q 819.510 855.146 825.728 863.674 Q 831.946 872.202 835.656 877.309 Q 839.366 882.416 841.714 887.386 Q 844.063 892.356 844.662 896.868 Q 845.262 901.379 845.525 904.420 Q 845.788 907.461 845.483 915.029 Q 845.178 922.597 842.781 932.360 "></path>
    <path id="STROKE_0298114e-77ae-4cbf-a0c1-e1e3d3e586fb" opacity="1.000" fill="none" stroke="#ffffff" stroke-width="1.931" stroke-opacity="1.000" stroke-linecap="round" stroke-linejoin="round" d="M 834.308 515.933 Q 834.178 515.888 834.211 515.872 Q 834.244 515.857 834.350 515.873 Q 834.457 515.889 834.448 515.893 Q 834.440 515.897 833.811 515.739 Q 833.182 515.581 832.968 515.961 Q 832.754 516.341 832.820 516.230 Q 832.885 516.118 832.032 517.523 Q 831.179 518.928 830.077 522.910 Q 828.974 526.893 828.255 531.193 Q 827.535 535.494 827.384 541.912 Q 827.233 548.331 829.551 561.396 "></path>
    <path id="STROKE_02c6dd22-b588-4b39-b030-aca4dfff6436" opacity="1.000" fill="none" stroke="#ffffff" stroke-width="2.275" stroke-opacity="1.000" stroke-linecap="round" stroke-linejoin="round" d="M 919.597 717.207 Q 920.377 716.974 922.611 716.616 Q 924.845 716.258 927.459 715.719 Q 930.073 715.181 933.320 714.198 Q 936.567 713.216 937.821 712.695 Q 939.075 712.174 941.006 711.230 Q 942.937 710.286 944.239 709.573 Q 945.540 708.861 946.285 708.433 Q 947.029 708.005 948.425 707.013 Q 949.820 706.022 951.010 705.095 Q 952.199 704.169 953.811 702.880 "></path>
  </g>
</svg>