<?xml version="1.0" encoding="UTF-8" standalone="yes"?>
<svg xmlns="http://www.w3.org/2000/svg" xmlns:xlink="http://www.w3.org/1999/xlink" width="601.859pt" height="838.354pt" version="1.1" viewBox="-251.455 360.323 601.859 838.354">
  <!--
	Exported with Concepts: Smarter Sketching
	Version: 2023.01.9 on Android 13
	https://concepts.app/
	-->
  <title>Senza titolo 2</title>
  <desc>Drawing exported from Concepts: Smarter Sketching</desc>
  <defs></defs>
  <g id="Penna" opacity="1.000">
    <path id="STROKE_6d855155-9b24-4250-a6b2-6752fccf8de6" opacity="1.000" fill="none" stroke="#f9f9f1" stroke-width="2.473" stroke-opacity="1.000" stroke-linecap="round" stroke-linejoin="round" d="M -173.044 669.009 Q -173.220 669.538 -177.852 672.765 Q -180.669 671.738 -173.308 657.311 Q -165.947 642.884 -160.430 633.720 Q -154.913 624.555 -151.030 619.352 Q -147.148 614.149 -142.484 608.932 Q -137.821 603.716 -133.283 598.749 Q -128.744 593.783 -121.536 589.400 Q -114.327 585.017 -109.776 582.919 Q -105.225 580.822 -98.745 577.863 Q -92.265 574.905 -79.721 571.427 Q -67.178 567.949 -60.584 566.278 Q -53.989 564.608 -43.444 563.011 Q -32.899 561.415 -26.205 560.268 Q -19.511 559.122 -4.749 558.514 Q 10.014 557.906 17.795 557.701 Q 25.577 557.497 32.561 557.798 Q 39.546 558.099 48.475 559.677 Q 57.403 561.256 63.182 562.879 Q 68.960 564.503 80.125 568.252 Q 91.289 572.001 104.669 575.596 Q 118.048 579.191 124.801 581.008 Q 131.553 582.824 135.465 584.235 Q 139.376 585.647 141.626 586.860 Q 143.876 588.073 144.686 590.894 "></path>
    <path id="STROKE_819699b5-7db4-4b47-a747-4aa633394e09" opacity="1.000" fill="none" stroke="#f9f9f1" stroke-width="2.473" stroke-opacity="1.000" stroke-linecap="round" stroke-linejoin="round" d="M -166.134 693.946 Q -165.956 693.698 -167.986 695.996 Q -170.016 698.294 -170.613 700.098 Q -171.209 701.902 -170.176 704.392 Q -169.144 706.881 -165.835 706.106 Q -162.527 705.332 -159.398 703.542 Q -156.270 701.753 -153.194 699.913 Q -150.119 698.073 -143.497 693.696 Q -136.875 689.320 -127.772 681.553 Q -118.669 673.786 -111.232 668.528 Q -103.796 663.270 -100.215 660.847 Q -96.634 658.424 -93.896 657.290 Q -91.158 656.157 -89.279 655.888 Q -87.400 655.620 -85.986 656.067 Q -84.571 656.514 -83.260 656.823 Q -81.948 657.132 -78.743 663.226 Q -75.539 669.320 -74.001 673.062 Q -72.464 676.804 -70.492 679.033 Q -68.519 681.262 -66.814 682.824 Q -65.108 684.386 -62.021 685.722 Q -58.935 687.058 -53.309 687.006 Q -47.683 686.955 -44.701 686.562 Q -41.720 686.170 -38.461 685.331 Q -35.202 684.492 -31.486 683.622 Q -27.769 682.751 -10.941 676.096 Q 5.887 669.442 22.398 661.674 Q 38.909 653.906 50.654 648.394 Q 62.398 642.883 70.956 638.811 Q 79.514 634.739 84.332 632.415 Q 89.150 630.091 91.722 628.832 Q 94.295 627.572 99.557 625.140 Q 104.819 622.708 116.443 617.333 "></path>
    <path id="STROKE_04a735a4-b6dd-4ee5-a069-7258a522ca55" opacity="1.000" fill="none" stroke="#f9f9f1" stroke-width="2.473" stroke-opacity="1.000" stroke-linecap="round" stroke-linejoin="round" d="M 139.954 597.503 Q 140.453 598.243 143.372 605.818 Q 146.291 613.394 148.361 621.840 Q 150.431 630.286 151.009 646.637 Q 151.587 662.988 151.721 671.367 Q 151.856 679.746 151.054 688.256 Q 150.251 696.766 150.921 711.072 "></path>
    <path id="STROKE_fef193d3-4532-47d2-b166-ab4d9feb436c" opacity="1.000" fill="none" stroke="#f9f9f1" stroke-width="2.473" stroke-opacity="1.000" stroke-linecap="round" stroke-linejoin="round" d="M -121.066 714.302 Q -121.111 713.803 -122.267 723.741 Q -123.422 733.679 -123.519 743.502 Q -123.616 753.325 -122.824 762.944 Q -122.032 772.563 -120.600 781.159 Q -119.168 789.755 -117.840 794.534 Q -116.511 799.313 -115.070 803.154 Q -113.628 806.995 -110.785 810.788 Q -107.941 814.581 -105.336 817.166 Q -102.730 819.750 -96.736 822.244 Q -90.742 824.737 -87.128 825.964 Q -83.515 827.190 -74.350 828.477 Q -65.185 829.764 -48.211 831.518 Q -31.237 833.272 -22.538 834.385 Q -13.838 835.497 -8.950 835.961 Q -4.063 836.424 17.143 841.090 "></path>
    <path id="STROKE_683e4f4f-5252-4b46-a3cc-0ea43a9140d7" opacity="1.000" fill="none" stroke="#f9f9f1" stroke-width="2.473" stroke-opacity="1.000" stroke-linecap="round" stroke-linejoin="round" d="M -39.192 512.027 Q -39.700 512.284 -38.904 502.627 Q -38.108 492.971 -36.421 485.064 Q -34.734 477.156 -32.945 468.317 Q -31.156 459.478 -29.479 450.982 Q -27.803 442.485 -24.745 430.465 Q -21.687 418.446 -16.357 404.843 "></path>
    <path id="STROKE_93f0f203-9477-4f6d-8a3a-59f606b785ed" opacity="1.000" fill="none" stroke="#f9f9f1" stroke-width="2.473" stroke-opacity="1.000" stroke-linecap="round" stroke-linejoin="round" d="M -17.184 474.546 Q -19.180 473.438 -14.678 466.159 Q -10.176 458.881 -6.631 454.691 Q -3.086 450.501 -1.288 448.302 Q 0.510 446.103 7.963 437.350 Q 15.415 428.596 20.193 423.412 Q 24.970 418.227 30.512 413.129 Q 36.053 408.030 43.023 401.854 Q 49.992 395.678 58.895 389.676 Q 67.797 383.674 72.420 380.894 Q 77.044 378.113 80.265 376.404 Q 83.487 374.694 94.661 370.141 "></path>
    <path id="STROKE_09720d45-3954-4821-b48d-3bbfb0e75587" opacity="1.000" fill="none" stroke="#f9f9f1" stroke-width="2.473" stroke-opacity="1.000" stroke-linecap="round" stroke-linejoin="round" d="M 29.462 498.056 Q 29.097 498.458 25.105 503.276 Q 24.987 503.433 31.507 496.267 Q 38.028 489.101 41.742 485.111 Q 45.456 481.122 53.643 473.961 Q 61.831 466.800 67.076 462.753 Q 72.321 458.705 75.431 456.514 Q 78.541 454.322 80.390 453.038 Q 82.239 451.753 86.571 449.140 Q 90.902 446.527 93.522 444.938 Q 96.142 443.348 104.278 438.715 Q 112.413 434.083 119.204 431.007 Q 125.995 427.931 129.569 426.481 Q 133.143 425.031 138.640 423.374 Q 144.137 421.716 148.805 421.134 Q 153.474 420.552 157.399 420.401 Q 161.324 420.251 169.323 425.498 "></path>
    <path id="STROKE_56d7e80e-1fb7-49d0-9a6f-afd6dc027350" opacity="1.000" fill="none" stroke="#f9f9f1" stroke-width="2.473" stroke-opacity="1.000" stroke-linecap="round" stroke-linejoin="round" d="M 99.017 544.775 Q 99.467 543.974 105.975 537.480 Q 112.483 530.986 117.704 526.879 Q 122.926 522.773 130.595 518.209 Q 138.264 513.645 145.329 510.647 Q 152.394 507.648 157.176 505.811 Q 161.958 503.974 168.699 501.861 Q 175.441 499.748 183.648 498.060 Q 191.856 496.372 201.312 495.764 Q 210.768 495.156 218.721 495.746 Q 226.674 496.335 232.098 497.705 Q 237.522 499.075 242.636 500.724 Q 247.751 502.373 254.818 507.622 Q 261.885 512.872 267.261 517.477 Q 272.638 522.082 275.329 524.356 Q 278.021 526.631 279.679 528.684 Q 281.336 530.738 282.340 533.143 Q 283.344 535.548 278.764 543.573 "></path>
    <path id="STROKE_d07b882b-b3c5-49f0-80d9-e976eea83dff" opacity="1.000" fill="none" stroke="#f9f9f1" stroke-width="2.473" stroke-opacity="1.000" stroke-linecap="round" stroke-linejoin="round" d="M 193.435 587.589 Q 192.623 587.462 189.303 585.598 Q 189.121 584.271 195.418 582.822 Q 201.715 581.372 206.462 580.756 Q 211.209 580.139 214.778 580.017 Q 218.347 579.896 222.084 581.152 Q 225.821 582.407 228.857 584.432 Q 231.893 586.456 234.842 590.250 Q 237.791 594.044 240.715 601.150 Q 243.639 608.256 245.639 615.369 Q 247.639 622.482 248.056 630.428 Q 248.474 638.374 248.357 644.021 Q 248.239 649.667 247.066 655.640 "></path>
    <path id="STROKE_28a67435-a2dd-4f0f-8ddc-781383ab392b" opacity="1.000" fill="none" stroke="#f9f9f1" stroke-width="2.473" stroke-opacity="1.000" stroke-linecap="round" stroke-linejoin="round" d="M 152.949 741.867 Q 151.709 742.502 149.115 743.596 Q 146.521 744.689 145.129 744.921 Q 143.737 745.153 142.552 745.018 Q 141.366 744.883 140.976 743.271 Q 140.586 741.660 142.069 737.416 Q 143.553 733.172 147.717 722.736 Q 151.881 712.300 153.953 706.478 Q 156.026 700.656 158.578 696.536 Q 161.130 692.415 162.635 690.356 Q 164.141 688.297 167.120 685.556 Q 170.100 682.815 173.519 681.667 Q 176.939 680.519 179.156 680.383 Q 181.373 680.246 183.113 681.230 Q 184.853 682.213 185.950 683.818 Q 187.047 685.423 187.587 688.912 Q 188.127 692.401 186.373 698.040 Q 184.620 703.679 182.316 707.818 Q 180.012 711.956 177.961 715.045 Q 175.910 718.134 172.887 721.836 Q 169.863 725.538 166.975 728.664 Q 164.087 731.790 161.078 734.801 Q 158.069 737.812 155.343 740.485 Q 152.616 743.158 145.362 752.458 "></path>
    <path id="STROKE_57b9b95a-b502-40a1-9e2c-632a62a8f19b" opacity="1.000" fill="none" stroke="#f9f9f1" stroke-width="2.473" stroke-opacity="1.000" stroke-linecap="round" stroke-linejoin="round" d="M -15.907 849.277 Q -16.017 849.374 -16.007 849.297 Q -15.997 849.219 -14.104 848.300 Q -13.789 848.824 -12.974 854.126 Q -12.159 859.429 -17.241 871.900 Q -22.322 884.371 -25.597 890.776 Q -28.873 897.182 -32.198 903.772 Q -35.524 910.363 -41.746 925.365 "></path>
    <path id="STROKE_875c26dc-068d-4bd5-8f9f-bcb4fcbec965" opacity="1.000" fill="none" stroke="#f9f9f1" stroke-width="2.473" stroke-opacity="1.000" stroke-linecap="round" stroke-linejoin="round" d="M 98.716 844.470 Q 96.508 844.986 96.491 859.368 Q 96.474 873.750 96.493 881.713 Q 96.512 889.675 96.922 894.220 Q 97.333 898.764 99.543 904.859 "></path>
    <path id="STROKE_c0c02d9b-8e32-4806-84b3-d0aec7c19ba8" opacity="1.000" fill="none" stroke="#f9f9f1" stroke-width="2.473" stroke-opacity="1.000" stroke-linecap="round" stroke-linejoin="round" d="M 134.396 932.876 Q 135.695 931.899 160.590 934.739 Q 185.485 937.579 198.779 939.234 Q 212.073 940.889 225.885 942.462 Q 239.697 944.035 309.635 950.527 "></path>
    <path id="STROKE_41f851da-cc0f-41e0-848e-04e54d9f60ae" opacity="1.000" fill="none" stroke="#f9f9f1" stroke-width="2.473" stroke-opacity="1.000" stroke-linecap="round" stroke-linejoin="round" d="M -67.059 914.999 Q -66.758 914.195 -66.274 912.667 Q -65.790 911.139 -66.428 909.401 Q -67.066 907.664 -71.758 906.633 Q -76.451 905.602 -82.306 905.531 Q -88.161 905.460 -91.638 905.076 Q -95.115 904.691 -114.754 906.513 Q -134.393 908.335 -146.485 909.529 Q -158.577 910.723 -167.110 912.333 L -167.110 912.445 "></path>
    <path id="STROKE_10378485-79f0-4793-9e81-19b6512a438c" opacity="1.000" fill="none" stroke="#f9f9f1" stroke-width="2.473" stroke-opacity="1.000" stroke-linecap="round" stroke-linejoin="round" d="M -170.791 921.834 Q -172.995 921.216 -177.682 922.628 Q -182.368 924.040 -185.742 926.287 Q -189.116 928.534 -192.330 932.667 Q -195.544 936.800 -199.793 948.073 Q -204.042 959.346 -206.170 965.999 Q -208.297 972.653 -209.438 976.235 Q -210.580 979.817 -211.682 983.598 Q -212.785 987.379 -213.573 989.639 Q -214.361 991.899 -218.306 1006.227 Q -222.251 1020.554 -225.664 1034.863 Q -229.078 1049.171 -232.658 1066.429 Q -236.238 1083.686 -237.762 1093.807 Q -239.285 1103.928 -240.297 1111.610 Q -241.310 1119.291 -241.623 1144.089 "></path>
    <path id="STROKE_736a0c13-4feb-4162-81bf-6506227597f5" opacity="1.000" fill="none" stroke="#f9f9f1" stroke-width="2.473" stroke-opacity="1.000" stroke-linecap="round" stroke-linejoin="round" d="M 309.861 956.235 Q 310.225 958.030 311.314 979.118 Q 312.403 1000.207 312.806 1011.374 Q 313.208 1022.541 314.380 1034.931 Q 315.551 1047.322 317.511 1060.429 Q 319.471 1073.536 321.052 1082.115 Q 322.634 1090.694 326.848 1109.643 Q 331.063 1128.593 333.699 1142.906 Q 336.335 1157.219 337.615 1165.270 Q 338.895 1173.321 340.582 1188.855 "></path>
    <path id="STROKE_857cedda-17b6-451a-9ba0-6263b5d67722" opacity="1.000" fill="none" stroke="#f9f9f1" stroke-width="2.473" stroke-opacity="1.000" stroke-linecap="round" stroke-linejoin="round" d="M -10.791 773.599 Q -10.021 773.779 -4.641 773.715 Q 0.738 773.651 4.223 773.612 Q 7.707 773.573 14.660 771.473 Q 21.612 769.372 29.494 766.039 Q 37.376 762.706 45.025 757.809 "></path>
    <path id="STROKE_d396727d-9323-43e9-aa4b-85a95dc7cb8f" opacity="1.000" fill="none" stroke="#f9f9f1" stroke-width="2.473" stroke-opacity="1.000" stroke-linecap="round" stroke-linejoin="round" d="M -80.268 592.642 Q -79.868 592.446 -79.212 591.843 Q -78.556 591.241 -78.525 591.280 Q -78.493 591.320 -78.359 591.063 Q -78.804 590.442 -88.969 599.643 Q -99.134 608.845 -104.900 614.007 Q -110.666 619.168 -116.142 623.827 Q -121.618 628.485 -125.577 632.274 Q -129.536 636.064 -144.604 651.541 "></path>
    <path id="STROKE_52e5c12e-a69e-455f-9742-f5a3b9e1e043" opacity="1.000" fill="none" stroke="#f9f9f1" stroke-width="2.473" stroke-opacity="1.000" stroke-linecap="round" stroke-linejoin="round" d="M -19.237 581.552 Q -19.958 581.575 -27.073 586.453 Q -34.188 591.332 -37.992 594.318 Q -41.795 597.304 -45.273 600.039 Q -48.750 602.774 -51.289 604.741 Q -53.828 606.708 -58.317 610.025 Q -62.806 613.343 -71.014 621.577 "></path>
    <path id="STROKE_f1711bb6-3997-48dd-b10c-6b2b1afd028a" opacity="1.000" fill="none" stroke="#f9f9f1" stroke-width="2.473" stroke-opacity="1.000" stroke-linecap="round" stroke-linejoin="round" d="M 20.495 579.276 Q 19.970 579.925 14.164 583.907 Q 8.359 587.888 2.134 593.009 "></path>
  </g>
</svg>